<svg width="20" height="20" viewBox="0 0 20 20" fill="none" xmlns="http://www.w3.org/2000/svg">
<path d="M17.5003 9.79178H2.50033C1.70033 9.79178 1.04199 9.13344 1.04199 8.33345V5.56677C1.04199 5.00011 1.43364 4.42511 1.95864 4.21678L9.45864 1.2168C9.7753 1.0918 10.2253 1.0918 10.542 1.2168L18.042 4.21678C18.567 4.42511 18.9587 5.00844 18.9587 5.56677V8.33345C18.9587 9.13344 18.3003 9.79178 17.5003 9.79178ZM10.0003 2.3668C9.96699 2.3668 9.93368 2.36676 9.91701 2.37509L2.4253 5.37512C2.3753 5.40012 2.29199 5.50844 2.29199 5.56677V8.33345C2.29199 8.45011 2.38366 8.54178 2.50033 8.54178H17.5003C17.617 8.54178 17.7087 8.45011 17.7087 8.33345V5.56677C17.7087 5.50844 17.6337 5.40012 17.5753 5.37512L10.0753 2.37509C10.0587 2.36676 10.0337 2.3668 10.0003 2.3668Z" fill="#B5B7C8"/>
<path d="M18.3337 18.9583H1.66699C1.32533 18.9583 1.04199 18.675 1.04199 18.3333V15.8333C1.04199 15.0333 1.70033 14.375 2.50033 14.375H17.5003C18.3003 14.375 18.9587 15.0333 18.9587 15.8333V18.3333C18.9587 18.675 18.6753 18.9583 18.3337 18.9583ZM2.29199 17.7083H17.7087V15.8333C17.7087 15.7167 17.617 15.625 17.5003 15.625H2.50033C2.38366 15.625 2.29199 15.7167 2.29199 15.8333V17.7083Z" fill="#B5B7C8"/>
<path d="M3.33301 15.625C2.99134 15.625 2.70801 15.3417 2.70801 15V9.16666C2.70801 8.82499 2.99134 8.54166 3.33301 8.54166C3.67467 8.54166 3.95801 8.82499 3.95801 9.16666V15C3.95801 15.3417 3.67467 15.625 3.33301 15.625Z" fill="#B5B7C8"/>
<path d="M6.66699 15.625C6.32533 15.625 6.04199 15.3417 6.04199 15V9.16666C6.04199 8.82499 6.32533 8.54166 6.66699 8.54166C7.00866 8.54166 7.29199 8.82499 7.29199 9.16666V15C7.29199 15.3417 7.00866 15.625 6.66699 15.625Z" fill="#B5B7C8"/>
<path d="M10 15.625C9.65833 15.625 9.375 15.3417 9.375 15V9.16666C9.375 8.82499 9.65833 8.54166 10 8.54166C10.3417 8.54166 10.625 8.82499 10.625 9.16666V15C10.625 15.3417 10.3417 15.625 10 15.625Z" fill="#B5B7C8"/>
<path d="M13.333 15.625C12.9913 15.625 12.708 15.3417 12.708 15V9.16666C12.708 8.82499 12.9913 8.54166 13.333 8.54166C13.6747 8.54166 13.958 8.82499 13.958 9.16666V15C13.958 15.3417 13.6747 15.625 13.333 15.625Z" fill="#B5B7C8"/>
<path d="M16.667 15.625C16.3253 15.625 16.042 15.3417 16.042 15V9.16666C16.042 8.82499 16.3253 8.54166 16.667 8.54166C17.0087 8.54166 17.292 8.82499 17.292 9.16666V15C17.292 15.3417 17.0087 15.625 16.667 15.625Z" fill="#B5B7C8"/>
<path d="M19.1663 18.9583H0.833008C0.491341 18.9583 0.208008 18.675 0.208008 18.3333C0.208008 17.9917 0.491341 17.7083 0.833008 17.7083H19.1663C19.508 17.7083 19.7913 17.9917 19.7913 18.3333C19.7913 18.675 19.508 18.9583 19.1663 18.9583Z" fill="#B5B7C8"/>
<path d="M10 7.70834C8.96667 7.70834 8.125 6.86668 8.125 5.83334C8.125 4.80001 8.96667 3.95834 10 3.95834C11.0333 3.95834 11.875 4.80001 11.875 5.83334C11.875 6.86668 11.0333 7.70834 10 7.70834ZM10 5.20834C9.65833 5.20834 9.375 5.49168 9.375 5.83334C9.375 6.17501 9.65833 6.45834 10 6.45834C10.3417 6.45834 10.625 6.17501 10.625 5.83334C10.625 5.49168 10.3417 5.20834 10 5.20834Z" fill="#B5B7C8"/>
</svg>
