<svg width="20" height="20" viewBox="0 0 20 20" fill="none" xmlns="http://www.w3.org/2000/svg">
<path d="M14.1665 17.7083H5.83317C2.7915 17.7083 1.0415 15.9583 1.0415 12.9167V7.08332C1.0415 4.04166 2.7915 2.29166 5.83317 2.29166H14.1665C17.2082 2.29166 18.9582 4.04166 18.9582 7.08332V12.9167C18.9582 15.9583 17.2082 17.7083 14.1665 17.7083ZM5.83317 3.54166C3.44984 3.54166 2.2915 4.69999 2.2915 7.08332V12.9167C2.2915 15.3 3.44984 16.4583 5.83317 16.4583H14.1665C16.5498 16.4583 17.7082 15.3 17.7082 12.9167V7.08332C17.7082 4.69999 16.5498 3.54166 14.1665 3.54166H5.83317Z" fill="#27272A"/>
<path d="M9.999 10.725C9.299 10.725 8.59067 10.5083 8.049 10.0666L5.44067 7.98331C5.174 7.76664 5.124 7.37497 5.34067 7.10831C5.55734 6.84164 5.94901 6.79164 6.21567 7.00831L8.824 9.09164C9.45733 9.59998 10.5323 9.59998 11.1657 9.09164L13.774 7.00831C14.0407 6.79164 14.4407 6.83331 14.649 7.10831C14.8657 7.37497 14.824 7.77498 14.549 7.98331L11.9407 10.0666C11.4073 10.5083 10.699 10.725 9.999 10.725Z" fill="#27272A"/>
</svg>
